PathFileType	4	(X/Y/Z)	Walking01.trc	
DataRate	CameraRate	NumFrames	NumMarkers	Units	OrigDataRate	OrigDataStartFrame	OrigNumFrames	
100.00	100.00	10	19	mm	100.00	410	102	
Frame#	Time	RPSI			LPSI			RASI			LASI			RTHI			RKNE			RHFB			RTUB			RSHN			RANK			RLCA			RSTL			RPCA			RCPG			RHEE			RP5M			RP1M			RD5M			RTOE			
		X1	Y1	Z1	X2	Y2	Z2	X3	Y3	Z3	X4	Y4	Z4	X5	Y5	Z5	X6	Y6	Z6	X7	Y7	Z7	X8	Y8	Z8	X9	Y9	Z9	X10	Y10	Z10	X11	Y11	Z11	X12	Y12	Z12	X13	Y13	Z13	X14	Y14	Z14	X15	Y15	Z15	X16	Y16	Z16	X17	Y17	Z17	X18	Y18	Z18	X19	Y19	Z19	

52	0.510	-195.84561	891.05591	86.46757	-194.76309	886.66260	-5.39879	-17.84668	838.94653	191.68288	7.39584	837.79309	-50.29292	-189.01216	556.05304	204.03432	-234.71346	422.39450	176.84346	-259.08026	386.91293	174.98332	-208.58313	347.68344	124.72443	-257.56445	289.86081	115.87592	-462.48453	118.62245	139.55556	-484.00217	103.89042	131.61986	-471.72205	100.18624	67.97086	-491.52591	136.08696	95.51906	-521.79095	136.12885	93.35423	-517.63525	102.84700	88.89785	-417.39987	30.18731	161.19824	-372.97400	68.61911	87.99305	-387.78275	16.21668	167.99825	-344.69479	30.33862	131.85699 
53	0.520	-180.39310	890.76398	86.28091	-179.88861	887.12408	-5.88613	-1.33275	838.21759	189.84201	22.78841	838.72229	-51.71608	-171.24977	554.14008	203.25055	-216.86966	420.56851	177.26605	-242.03331	385.91708	175.93456	-191.99869	345.44565	125.73177	-243.63423	288.79993	116.71281	-454.95273	125.87500	140.58640	-476.99149	112.64442	133.03531	-464.77844	108.30657	69.50702	-482.84546	144.83554	97.17973	-512.76685	147.00406	95.56419	-510.33752	113.38522	90.41927	-414.95538	33.89545	161.54196	-368.02002	70.11281	89.39506	-386.56461	18.78378	168.45226	-343.63535	30.52738	131.74335 
54	0.530	-165.65901	891.01343	86.55451	-165.12749	888.48767	-5.97543	15.56742	838.01062	187.24182	37.86641	840.53082	-53.52706	-151.95859	552.05273	202.33476	-197.34137	418.76428	178.17035	-223.27904	384.86523	177.23653	-173.95134	342.87451	126.95947	-228.20816	287.94724	117.84634	-445.78052	133.51411	142.03067	-468.28860	121.60383	134.83838	-455.87552	116.89954	70.79419	-472.37311	153.94574	98.49619	-502.25104	157.50758	97.18478	-501.06342	124.73141	91.61039	-411.77536	38.34599	162.02708	-362.26672	71.84176	89.71000	-384.83597	21.59663	168.70265	-341.63010	31.31637	131.50662 
55	0.540	-150.05862	891.04736	87.19656	-150.44022	890.29193	-5.74873	32.19405	837.82281	184.55840	52.83594	843.25323	-55.72968	-131.91284	549.94629	201.60353	-176.02806	416.87631	179.58089	-202.90889	383.68091	179.05353	-154.49921	340.27405	128.54570	-210.86330	287.19382	119.36723	-434.79099	141.55991	143.83354	-457.62128	130.35098	136.08800	-444.70511	125.74158	72.04390	-460.35748	163.30814	99.89428	-489.16263	168.52934	98.16720	-489.34723	136.69159	92.57824	-407.66388	43.39546	162.52287	-356.47644	72.57764	89.04202	-382.19348	25.01844	169.29616	-340.07779	30.73247	130.94614 
56	0.550	-134.47150	891.17920	87.99881	-135.55640	891.89996	-5.27212	48.74432	838.21094	181.16072	67.71695	846.56927	-58.17125	-111.22866	547.89734	201.30164	-153.25177	414.85101	181.28215	-181.15866	382.40170	181.23192	-133.21936	337.56717	131.27771	-191.78972	286.27982	121.41205	-421.51892	149.76724	145.24753	-444.30841	140.37355	137.48279	-431.59485	135.32591	73.25181	-445.76501	173.69678	101.34113	-472.86322	181.29887	98.91202	-475.39444	149.59000	93.56590	-402.86469	49.08890	162.98831	-349.84451	73.87444	89.10252	-379.36578	28.48138	169.28447	-338.22919	30.78077	130.54890 
57	0.560	-119.10089	891.49939	89.03069	-120.71349	893.35046	-4.59854	65.04536	839.15155	176.97513	82.19589	850.07874	-60.80169	-89.86681	545.90979	201.81827	-129.60841	412.80151	183.49278	-157.99220	380.91605	183.81841	-110.52281	334.74030	134.59947	-171.39014	285.17178	124.20115	-407.00659	158.86893	146.58438	-430.19165	152.41989	139.23505	-417.19382	146.14958	74.76301	-428.68921	185.73718	102.63280	-454.69333	195.14825	99.81851	-460.08041	164.05707	94.75103	-397.92432	56.32060	163.18530	-342.77823	76.60648	90.04005	-377.34149	32.10305	169.04886	-336.47324	31.71166	130.27313 
58	0.570	-104.04424	892.01538	89.95641	-106.03087	894.83881	-3.76730	81.42722	840.56201	172.83958	96.20500	853.51617	-63.41442	-67.99342	543.88593	202.91406	-105.21378	410.50455	186.03587	-133.72914	379.24918	186.85182	-87.06560	332.04584	138.44388	-150.12735	283.93893	127.40163	-393.26526	169.96999	147.74155	-417.05960	165.69147	140.43745	-401.68378	158.10957	76.23349	-410.65103	198.31706	104.17963	-435.46106	209.40181	101.74219	-443.22348	179.37819	96.08192	-391.41754	66.01945	163.97171	-333.98965	82.27110	91.46445	-373.38196	38.49172	169.67726	-332.86020	35.03549	131.15724 
59	0.580	-89.24883	892.66345	90.84447	-91.41334	896.31433	-2.98698	97.63486	842.03723	168.66270	109.76105	856.63867	-66.11115	-45.43856	541.80798	203.81688	-80.01106	408.01822	188.72359	-108.42081	377.36389	189.91162	-62.94777	329.73077	142.21019	-128.19734	283.19727	130.73683	-377.70901	181.44792	148.97060	-399.24530	177.59102	141.37292	-384.51486	170.35399	77.33143	-390.74792	210.77003	105.33084	-414.56128	223.44679	103.67991	-424.43259	194.57927	97.28014	-381.56470	77.64925	165.04947	-322.96771	89.11185	92.80582	-366.48602	46.88967	170.31931	-327.29382	39.71336	132.53854 
60	0.590	-74.73141	893.28741	91.58488	-77.32006	897.93445	-2.42788	112.39690	842.89948	165.37674	123.16624	859.48560	-68.84704	-22.68922	539.76440	204.47824	-54.26955	405.64630	191.55965	-82.56582	375.56683	193.04208	-38.10865	328.09647	145.33099	-105.33872	283.11838	133.78331	-357.93613	191.86974	150.78389	-379.65207	189.65341	142.04756	-365.12573	182.13362	77.88256	-368.52841	222.42825	106.30581	-391.62396	236.70590	104.77576	-403.11264	209.05222	98.01414	-369.62985	88.98132	165.34250	-310.06625	96.23006	93.60418	-357.56647	56.51588	170.02519	-319.74548	44.97815	133.74934 
61	0.600	-60.53579	893.79498	92.01295	-63.47798	899.62866	-2.16905	126.88762	843.95020	162.57236	136.52524	861.95483	-71.41907	0.04377	538.43823	205.06047	-28.27011	403.70593	194.60670	-56.10354	374.54440	196.51427	-12.66981	327.39230	148.39223	-81.38764	283.54358	136.70464	-335.64230	200.11586	149.77393	-357.70624	201.15497	142.34633	-343.36194	192.88171	78.03915	-343.83057	233.07663	107.09030	-366.27750	248.68208	105.22649	-379.24249	222.43787	97.94406	-355.81339	99.63143	164.96310	-294.75592	102.74349	94.08441	-346.10559	66.63907	169.18942	-309.90338	51.09072	134.19495 
